<svg xmlns="http://www.w3.org/2000/svg" width="25" height="25" viewBox="0 0 25 25">
  <g id="vuesax_outline_home-2" data-name="vuesax/outline/home-2" transform="translate(0.5 0.5)">
    <g id="home-2" transform="translate(0 0)">
      <path id="Vector" d="M16.523,21.454H4.955A4.963,4.963,0,0,1,0,16.49v-7.4A5.5,5.5,0,0,1,1.918,5.181L7.3.986a5.193,5.193,0,0,1,5.884-.14L19.36,5.171a5.457,5.457,0,0,1,2.118,4.056V16.5A4.96,4.96,0,0,1,16.523,21.454Zm-8.3-19.29L2.837,6.36A4.06,4.06,0,0,0,1.5,9.087v7.4a3.466,3.466,0,0,0,3.456,3.466H16.523A3.458,3.458,0,0,0,19.98,16.5V9.227A3.964,3.964,0,0,0,18.5,6.4L12.327,2.074A3.718,3.718,0,0,0,8.222,2.164Z" transform="translate(1.261 1.285)" fill="#4da763" stroke="#4ea964" stroke-width="1"/>
      <path id="Vector-2" data-name="Vector" d="M.757,4.539A.762.762,0,0,1,0,3.783V.757A.762.762,0,0,1,.757,0a.762.762,0,0,1,.757.757V3.783A.762.762,0,0,1,.757,4.539Z" transform="translate(11.243 14.221)" fill="#4da763" stroke="#4ea964" stroke-width="1"/>
      <path id="Vector-3" data-name="Vector" d="M0,0H24V24H0Z" fill="none" stroke="#4ea964" stroke-width="1" opacity="0"/>
    </g>
  </g>
</svg>
