<svg xmlns="http://www.w3.org/2000/svg" width="24" height="30.125" viewBox="0 0 24 30.125">
  <g id="Groupe_132" data-name="Groupe 132" transform="translate(-120 -16)">
    <line id="Ligne_12" data-name="Ligne 12" x2="11" transform="translate(126 44.625)" fill="none" stroke="#4ea964" stroke-linecap="round" stroke-width="3"/>
    <g id="vuesax_bold_location" data-name="vuesax/bold/location" transform="translate(-308 -172)">
      <path id="Vector" d="M17.5,6.7A8.626,8.626,0,0,0,8.88,0H8.87A8.624,8.624,0,0,0,.25,6.69C-.92,11.85,2.24,16.22,5.1,18.97a5.422,5.422,0,0,0,7.55,0C15.51,16.22,18.67,11.86,17.5,6.7ZM8.88,11.71a3.15,3.15,0,1,1,3.15-3.15A3.15,3.15,0,0,1,8.88,11.71Z" transform="translate(431.12 189.75)" fill="#0cac5c"/>
      <path id="Vector-2" data-name="Vector" d="M0,0H24V24H0Z" transform="translate(428 188)" fill="none" opacity="0"/>
      <path id="Vector-3" data-name="Vector" d="M0,0H24V24H0Z" transform="translate(452 212) rotate(180)" fill="none" opacity="0"/>
    </g>
  </g>
</svg>
