<svg xmlns="http://www.w3.org/2000/svg" width="24" height="24" viewBox="0 0 24 24">
  <g id="vuesax_outline_routing" data-name="vuesax/outline/routing" transform="translate(-748 -252)">
    <g id="routing">
      <path id="Vector" d="M4.249,9.5a2.849,2.849,0,0,1-1.98-.79C.429,6.96-.311,5.05.119,3.18A4.129,4.129,0,0,1,4.249,0a4.132,4.132,0,0,1,4.13,3.18c.43,1.87-.32,3.78-2.15,5.53A2.832,2.832,0,0,1,4.249,9.5ZM1.579,3.52c-.38,1.67.73,3.15,1.73,4.1a1.368,1.368,0,0,0,1.89,0c1-.95,2.11-2.43,1.72-4.11A2.624,2.624,0,0,0,4.259,1.5,2.643,2.643,0,0,0,1.579,3.52Z" transform="translate(749.221 253.25)" fill="#142b63"/>
      <path id="Vector-2" data-name="Vector" d="M1,2A1,1,0,0,1,1,0h.01A1,1,0,1,1,1,2Z" transform="translate(752.51 256.2)" fill="#142b63"/>
      <path id="Vector-3" data-name="Vector" d="M4.273,9.51a2.89,2.89,0,0,1-1.99-.79C.433,6.97-.317,5.06.123,3.18A4.153,4.153,0,0,1,4.273,0a4.153,4.153,0,0,1,4.15,3.18c.43,1.87-.32,3.79-2.17,5.53A2.8,2.8,0,0,1,4.273,9.51Zm0-8a2.654,2.654,0,0,0-2.69,2.02c-.39,1.67.73,3.16,1.73,4.11a1.383,1.383,0,0,0,1.91,0c1-.95,2.12-2.43,1.73-4.1A2.621,2.621,0,0,0,4.273,1.51Z" transform="translate(762.217 265.24)" fill="#142b63"/>
      <path id="Vector-4" data-name="Vector" d="M1,2A1,1,0,0,1,1,0h.01a1,1,0,0,1,1,1A1.012,1.012,0,0,1,1,2Z" transform="translate(765.53 268.2)" fill="#142b63"/>
      <path id="Vector-5" data-name="Vector" d="M5.431,15.5H2.751a2.751,2.751,0,0,1-1.81-4.82l7.99-6.99a1.248,1.248,0,0,0-.82-2.19H5.431a.755.755,0,0,1-.75-.75A.755.755,0,0,1,5.431,0h2.68a2.715,2.715,0,0,1,2.57,1.78,2.732,2.732,0,0,1-.76,3.04l-7.99,6.99A1.248,1.248,0,0,0,2.751,14h2.68a.75.75,0,0,1,0,1.5Z" transform="translate(754.569 256.25)" fill="#142b63"/>
      <path id="Vector-6" data-name="Vector" d="M5.431,15.5H2.751a2.751,2.751,0,0,1-1.81-4.82l7.99-6.99a1.248,1.248,0,0,0-.82-2.19H5.431a.755.755,0,0,1-.75-.75A.755.755,0,0,1,5.431,0h2.68a2.715,2.715,0,0,1,2.57,1.78,2.732,2.732,0,0,1-.76,3.04l-7.99,6.99A1.248,1.248,0,0,0,2.751,14h2.68a.75.75,0,0,1,0,1.5Z" transform="translate(754.569 256.25)" fill="#142b63"/>
      <path id="Vector-7" data-name="Vector" d="M0,0H24V24H0Z" transform="translate(748 252)" fill="none" opacity="0"/>
    </g>
  </g>
</svg>
