<svg id="flash" xmlns="http://www.w3.org/2000/svg" width="18.473" height="24" viewBox="0 0 18.473 24">
  <path id="Vector" d="M6.15,20.759a1.989,1.989,0,0,1-.68-.12,1.881,1.881,0,0,1-1.23-1.78v-6.45H1.9A1.9,1.9,0,0,1,.48,9.249L8.05.649a1.874,1.874,0,0,1,2.1-.52,1.881,1.881,0,0,1,1.23,1.78v6.45h2.34a1.9,1.9,0,0,1,1.42,3.16l-7.57,8.6A1.886,1.886,0,0,1,6.15,20.759ZM9.46,1.5a.364.364,0,0,0-.29.14L1.6,10.249a.4.4,0,0,0,.3.67H4.99a.755.755,0,0,1,.75.75v7.2a.392.392,0,0,0,.26.38.376.376,0,0,0,.44-.11l7.57-8.61a.4.4,0,0,0-.3-.67H10.62a.755.755,0,0,1-.75-.75v-7.2a.392.392,0,0,0-.26-.38A.306.306,0,0,0,9.46,1.5Z" transform="translate(1.893 1.621)" fill="#142b63"/>
  <path id="Vector-2" data-name="Vector" d="M0,0H18.473V24H0Z" fill="none" opacity="0"/>
</svg>
