<svg xmlns="http://www.w3.org/2000/svg" width="54" height="54" viewBox="0 0 54 54">
  <g id="Groupe_1" data-name="Groupe 1" transform="translate(-27 -41)">
    <circle id="Ellipse_1" data-name="Ellipse 1" cx="27" cy="27" r="27" transform="translate(27 41)" fill="#fff"/>
    <g id="vuesax_outline_gps" data-name="vuesax/outline/gps" transform="translate(-518.501 -200.501)">
      <g id="gps" transform="translate(556 252)">
        <path id="Vector" d="M11.345,22.69A11.345,11.345,0,1,1,22.69,11.345,11.356,11.356,0,0,1,11.345,22.69Zm0-20.627a9.282,9.282,0,1,0,9.282,9.282A9.3,9.3,0,0,0,11.345,2.063Z" transform="translate(5.157 5.157)" fill="#0a2c67"/>
        <path id="Vector-2" data-name="Vector" d="M5.157,10.313a5.157,5.157,0,1,1,5.157-5.157A5.159,5.159,0,0,1,5.157,10.313Zm0-8.251A3.094,3.094,0,1,0,8.251,5.157,3.1,3.1,0,0,0,5.157,2.063Z" transform="translate(11.345 11.345)" fill="#0a2c67"/>
        <path id="Vector-3" data-name="Vector" d="M1.031,4.813A1.039,1.039,0,0,1,0,3.782V1.031A1.039,1.039,0,0,1,1.031,0,1.039,1.039,0,0,1,2.063,1.031v2.75A1.039,1.039,0,0,1,1.031,4.813Z" transform="translate(15.47 1.719)" fill="#0a2c67"/>
        <path id="Vector-4" data-name="Vector" d="M3.782,2.063H1.031A1.039,1.039,0,0,1,0,1.031,1.039,1.039,0,0,1,1.031,0h2.75A1.039,1.039,0,0,1,4.813,1.031,1.039,1.039,0,0,1,3.782,2.063Z" transform="translate(1.719 15.47)" fill="#0a2c67"/>
        <path id="Vector-5" data-name="Vector" d="M1.031,4.813A1.039,1.039,0,0,1,0,3.782V1.031A1.039,1.039,0,0,1,1.031,0,1.039,1.039,0,0,1,2.063,1.031v2.75A1.039,1.039,0,0,1,1.031,4.813Z" transform="translate(15.47 26.471)" fill="#0a2c67"/>
        <path id="Vector-6" data-name="Vector" d="M3.782,2.063H1.031A1.039,1.039,0,0,1,0,1.031,1.039,1.039,0,0,1,1.031,0h2.75A1.039,1.039,0,0,1,4.813,1.031,1.039,1.039,0,0,1,3.782,2.063Z" transform="translate(26.471 15.47)" fill="#0a2c67"/>
        <path id="Vector-7" data-name="Vector" d="M0,0H33V33H0Z" fill="none" opacity="0"/>
      </g>
    </g>
  </g>
</svg>
