<svg xmlns="http://www.w3.org/2000/svg" width="20" height="20" viewBox="0 0 20 20">
  <g id="Groupe_126" data-name="Groupe 126" transform="translate(-191 -514)">
    <g id="vuesax_outline_user-edit" data-name="vuesax/outline/user-edit" transform="translate(191 514)">
      <g id="user-edit">
        <path id="Vector" d="M4.792,9.583A4.792,4.792,0,1,1,9.583,4.792,4.8,4.8,0,0,1,4.792,9.583Zm0-8.333A3.542,3.542,0,1,0,8.333,4.792,3.549,3.549,0,0,0,4.792,1.25Z" transform="translate(5.208 1.042)" fill="#142b63"/>
        <path id="Vector-2" data-name="Vector" d="M1.165,6.941a1.171,1.171,0,0,1-.833-.333A1.186,1.186,0,0,1,.015,5.583L.173,4.458A1.683,1.683,0,0,1,.6,3.608L3.548.658a1.757,1.757,0,0,1,2.733,0A1.96,1.96,0,0,1,6.94,2.025a1.91,1.91,0,0,1-.658,1.358l-2.95,2.95a1.65,1.65,0,0,1-.85.425l-1.125.158A.757.757,0,0,1,1.165,6.941ZM4.906,1.25c-.15,0-.283.1-.475.292l-2.95,2.95a.317.317,0,0,0-.067.142l-.15,1.042,1.042-.15a.463.463,0,0,0,.142-.075L5.4,2.5a.865.865,0,0,0,.292-.475A.789.789,0,0,0,5.4,1.541C5.2,1.341,5.048,1.25,4.906,1.25Z" transform="translate(12.019 12.017)" fill="#142b63"/>
        <path id="Vector-3" data-name="Vector" d="M2.473,3.1a.537.537,0,0,1-.167-.025A3.314,3.314,0,0,1,.023.79a.623.623,0,0,1,1.2-.333A2.055,2.055,0,0,0,2.64,1.873.624.624,0,0,1,2.473,3.1Z" transform="translate(14.961 12.919)" fill="#142b63"/>
        <path id="Vector-4" data-name="Vector" d="M.625,7.083A.63.63,0,0,1,0,6.458C0,2.9,3.492,0,7.783,0a9.348,9.348,0,0,1,2.65.383.622.622,0,0,1-.358,1.192,8.064,8.064,0,0,0-2.292-.333c-3.6,0-6.533,2.333-6.533,5.208A.631.631,0,0,1,.625,7.083Z" transform="translate(2.217 11.875)" fill="#142b63"/>
        <path id="Vector-5" data-name="Vector" d="M0,0H20V20H0Z" fill="none" opacity="0"/>
      </g>
    </g>
  </g>
</svg>
