<svg xmlns="http://www.w3.org/2000/svg" width="17.25" height="17.25" viewBox="0 0 17.25 17.25">
  <g id="vuesax_outline_heart" data-name="vuesax/outline/heart" transform="translate(-235.5 -187.5)">
    <g id="heart" transform="translate(236 188)">
      <path id="Vector" d="M6.875,11.55a1.76,1.76,0,0,1-.55-.078C3.882,10.688,0,7.905,0,3.794A3.923,3.923,0,0,1,4.035,0a4.116,4.116,0,0,1,2.84,1.1A4.116,4.116,0,0,1,9.715,0,3.927,3.927,0,0,1,13.75,3.794c0,4.117-3.882,6.894-6.325,7.678A1.76,1.76,0,0,1,6.875,11.55ZM4.035.9a2.994,2.994,0,0,0-3.076,2.9c0,4.087,4.2,6.361,5.679,6.834a1.081,1.081,0,0,0,.48,0C8.589,10.156,12.8,7.888,12.8,3.794A2.994,2.994,0,0,0,9.721.9,3.111,3.111,0,0,0,7.265,2.059a.517.517,0,0,1-.767,0A3.124,3.124,0,0,0,4.035.9Z" transform="translate(1.25 2.35)" fill="#fff" stroke="#fff" stroke-width="1"/>
      <path id="Vector-2" data-name="Vector" d="M0,0H16.25V16.25H0Z" fill="none" stroke="#fff" stroke-width="1" opacity="0"/>
    </g>
  </g>
</svg>
