<svg xmlns="http://www.w3.org/2000/svg" width="29.729" height="29.729" viewBox="0 0 29.729 29.729">
  <g id="vuesax_bold_heart" data-name="vuesax/bold/heart" transform="translate(-236 -188)">
    <g id="heart" transform="translate(236 188)">
      <path id="Vector" d="M17.887,0a6.873,6.873,0,0,0-5.5,2.762A6.877,6.877,0,0,0,0,6.924a13.227,13.227,0,0,0,.644,4.1c1.957,6.194,7.99,9.9,10.975,10.913a2.7,2.7,0,0,0,1.536,0c2.985-1.016,9.018-4.719,10.975-10.913a13.227,13.227,0,0,0,.644-4.1A6.9,6.9,0,0,0,17.887,0Z" transform="translate(2.477 3.84)" fill="#142b63"/>
      <path id="Vector-2" data-name="Vector" d="M0,0H29.729V29.729H0Z" transform="translate(29.729 29.729) rotate(180)" fill="none" opacity="0"/>
    </g>
  </g>
</svg>
