<svg xmlns="http://www.w3.org/2000/svg" width="17" height="17" viewBox="0 0 17 17">
  <g id="vuesax_bold_heart" data-name="vuesax/bold/heart" transform="translate(-235.5 -187.5)">
    <g id="heart" transform="translate(236 188)">
      <path id="Vector" d="M8.664,0A3.436,3.436,0,0,0,6,1.228,3.436,3.436,0,0,0,3.336,0,3.214,3.214,0,0,0,0,3.078,5.438,5.438,0,0,0,.312,4.9c.948,2.753,3.87,4.4,5.316,4.85a1.421,1.421,0,0,0,.744,0c1.446-.451,4.368-2.1,5.316-4.85A5.438,5.438,0,0,0,12,3.078,3.214,3.214,0,0,0,8.664,0Z" transform="translate(2 3.1)" fill="#fff" stroke="#fff" stroke-width="1"/>
      <path id="Vector-2" data-name="Vector" d="M0,0H16V16H0Z" transform="translate(16 16) rotate(180)" fill="none" stroke="#fff" stroke-width="1" opacity="0"/>
    </g>
  </g>
</svg>
