<svg xmlns="http://www.w3.org/2000/svg" width="48" height="48" viewBox="0 0 48 48">
  <g id="Groupe_131" data-name="Groupe 131" transform="translate(-309 -274)">
    <circle id="Ellipse_8" data-name="Ellipse 8" cx="24" cy="24" r="24" transform="translate(309 274)" fill="#fff"/>
    <g id="vuesax_outline_setting-4" data-name="vuesax/outline/setting-4" transform="translate(-103.064 99.936)">
      <g id="setting-4" transform="translate(428 190)">
        <path id="Vector" d="M4.536,1.008H.5A.508.508,0,0,1,0,.5.508.508,0,0,1,.5,0H4.536a.508.508,0,0,1,.5.5A.508.508,0,0,1,4.536,1.008Z" transform="translate(10.248 3.864)" fill="#0cac5c" stroke="#0cac5c" stroke-width="0.5"/>
        <path id="Vector-2" data-name="Vector" d="M3.192,1.008H.5A.508.508,0,0,1,0,.5.508.508,0,0,1,.5,0H3.192a.508.508,0,0,1,.5.5A.508.508,0,0,1,3.192,1.008Z" transform="translate(0.84 3.864)" fill="#0cac5c" stroke="#0cac5c" stroke-width="0.5"/>
        <path id="Vector-3" data-name="Vector" d="M2.856,5.712A2.856,2.856,0,1,1,5.712,2.856,2.862,2.862,0,0,1,2.856,5.712Zm0-4.7A1.848,1.848,0,1,0,4.7,2.856,1.847,1.847,0,0,0,2.856,1.008Z" transform="translate(3.864 1.512)" fill="#0cac5c" stroke="#0cac5c" stroke-width="0.5"/>
        <path id="Vector-4" data-name="Vector" d="M3.192,1.008H.5A.508.508,0,0,1,0,.5.508.508,0,0,1,.5,0H3.192a.508.508,0,0,1,.5.5A.508.508,0,0,1,3.192,1.008Z" transform="translate(11.592 11.256)" fill="#0cac5c" stroke="#0cac5c" stroke-width="0.5"/>
        <path id="Vector-5" data-name="Vector" d="M4.536,1.008H.5A.508.508,0,0,1,0,.5.508.508,0,0,1,.5,0H4.536a.508.508,0,0,1,.5.5A.508.508,0,0,1,4.536,1.008Z" transform="translate(0.84 11.256)" fill="#0cac5c" stroke="#0cac5c" stroke-width="0.5"/>
        <path id="Vector-6" data-name="Vector" d="M2.856,5.712A2.856,2.856,0,1,1,5.712,2.856,2.862,2.862,0,0,1,2.856,5.712Zm0-4.7A1.848,1.848,0,1,0,4.7,2.856,1.847,1.847,0,0,0,2.856,1.008Z" transform="translate(6.552 8.904)" fill="#0cac5c" stroke="#0cac5c" stroke-width="0.5"/>
        <path id="Vector-7" data-name="Vector" d="M0,0H16.128V16.128H0Z" fill="none" stroke="#0cac5c" stroke-width="0.5" opacity="0"/>
      </g>
    </g>
  </g>
</svg>
