<svg xmlns="http://www.w3.org/2000/svg" width="54" height="54" viewBox="0 0 54 54">
  <g id="Groupe_132" data-name="Groupe 132" transform="translate(-303 -41)">
    <circle id="Ellipse_24" data-name="Ellipse 24" cx="27" cy="27" r="27" transform="translate(303 41)" fill="#fff"/>
    <g id="vuesax_outline_setting-2" data-name="vuesax/outline/setting-2" transform="translate(17 -135)">
      <g id="setting-2" transform="translate(300 190)">
        <path id="Vector" d="M4.063,8.125A4.063,4.063,0,1,1,8.125,4.063,4.064,4.064,0,0,1,4.063,8.125Zm0-6.5A2.438,2.438,0,1,0,6.5,4.063,2.441,2.441,0,0,0,4.063,1.625Z" transform="translate(8.938 8.938)" fill="#142b63"/>
        <path id="Vector-2" data-name="Vector" d="M15.124,22.076a2.946,2.946,0,0,1-.683-.087,2.66,2.66,0,0,1-1.593-1.2l-.13-.217c-.639-1.105-1.517-1.105-2.156,0l-.119.206A2.6,2.6,0,0,1,8.851,21.99a2.536,2.536,0,0,1-1.983-.271L5.005,20.646a2.874,2.874,0,0,1-1.062-3.922A1.45,1.45,0,0,0,4.16,15.36a1.444,1.444,0,0,0-1.289-.5A2.876,2.876,0,0,1,0,11.99V10.084A2.876,2.876,0,0,1,2.871,7.213a1.444,1.444,0,0,0,1.289-.5,1.42,1.42,0,0,0-.217-1.365,2.883,2.883,0,0,1-.282-2.178A2.8,2.8,0,0,1,5.005,1.428L6.879.355a2.624,2.624,0,0,1,3.575.943l.13.217c.639,1.105,1.517,1.105,2.156,0l.119-.206A2.616,2.616,0,0,1,16.445.366l1.863,1.073A2.874,2.874,0,0,1,19.37,5.36a1.45,1.45,0,0,0-.217,1.365,1.444,1.444,0,0,0,1.289.5,2.876,2.876,0,0,1,2.871,2.871V12a2.876,2.876,0,0,1-2.871,2.871,1.444,1.444,0,0,0-1.289.5,1.42,1.42,0,0,0,.217,1.365,2.835,2.835,0,0,1,.282,2.178,2.8,2.8,0,0,1-1.343,1.744L16.434,21.73A2.7,2.7,0,0,1,15.124,22.076Zm-3.478-4.008a2.952,2.952,0,0,1,2.481,1.679l.119.206a.993.993,0,0,0,1.343.358l1.874-1.083a1.253,1.253,0,0,0,.585-.758,1.238,1.238,0,0,0-.119-.943,2.975,2.975,0,0,1-.217-2.99,2.96,2.96,0,0,1,2.7-1.311,1.239,1.239,0,0,0,1.246-1.246V10.073A1.246,1.246,0,0,0,20.41,8.827a2.96,2.96,0,0,1-2.7-1.311,2.975,2.975,0,0,1,.217-2.99,1.238,1.238,0,0,0,.119-.943,1.267,1.267,0,0,0-.574-.758L15.6,1.753a1,1,0,0,0-1.365.358l-.119.206A2.952,2.952,0,0,1,11.635,4,2.952,2.952,0,0,1,9.154,2.316L9.035,2.1a1,1,0,0,0-1.343-.347L5.818,2.836a1.253,1.253,0,0,0-.585.758,1.238,1.238,0,0,0,.119.943,2.975,2.975,0,0,1,.217,2.99,2.96,2.96,0,0,1-2.7,1.311,1.239,1.239,0,0,0-1.246,1.246V11.99a1.246,1.246,0,0,0,1.246,1.246,2.96,2.96,0,0,1,2.7,1.311,2.975,2.975,0,0,1-.217,2.99,1.238,1.238,0,0,0-.119.943,1.267,1.267,0,0,0,.574.758L7.681,20.31a.958.958,0,0,0,.748.108,1.028,1.028,0,0,0,.618-.466l.119-.206A2.974,2.974,0,0,1,11.646,18.068Z" transform="translate(1.354 1.963)" fill="#142b63"/>
        <path id="Vector-3" data-name="Vector" d="M0,0H26V26H0Z" fill="none" opacity="0"/>
      </g>
    </g>
  </g>
</svg>
