<svg id="vuesax_linear_star" data-name="vuesax/linear/star" xmlns="http://www.w3.org/2000/svg" width="18" height="18" viewBox="0 0 18 18">
  <g id="star" transform="translate(0 0)">
    <path id="Vector" d="M8.8,1.074l1.32,2.64a1.63,1.63,0,0,0,1.065.788l2.392.4c1.53.255,1.89,1.365.787,2.46L12.5,9.219a1.628,1.628,0,0,0-.39,1.358l.533,2.3c.42,1.823-.547,2.528-2.16,1.575L8.242,13.127a1.621,1.621,0,0,0-1.485,0L4.514,14.454c-1.605.953-2.58.24-2.16-1.575l.533-2.3A1.628,1.628,0,0,0,2.5,9.219L.637,7.359c-1.1-1.1-.742-2.205.788-2.46l2.393-.4a1.633,1.633,0,0,0,1.057-.788l1.32-2.64C6.914-.358,8.084-.358,8.8,1.074Z" transform="translate(1.501 1.558)" fill="#142b63"/>
    <path id="Vector-2" data-name="Vector" d="M0,0H18V18H0Z" transform="translate(0 0)" fill="#142b63" opacity="0"/>
  </g>
</svg>
