<svg id="Groupe_74" data-name="Groupe 74" xmlns="http://www.w3.org/2000/svg" xmlns:xlink="http://www.w3.org/1999/xlink" width="96" height="99.141" viewBox="0 0 96 99.141">
  <defs>
    <clipPath id="clip-path">
      <rect id="Rectangle_71" data-name="Rectangle 71" width="96" height="99.141" fill="#0cac5c"/>
    </clipPath>
  </defs>
  <g id="Groupe_73" data-name="Groupe 73" clip-path="url(#clip-path)">
    <path id="Tracé_43" data-name="Tracé 43" d="M294.844,21.831a35.764,35.764,0,0,0-65.872,0l0,.012a.725.725,0,0,0,.764,1c5.19-.692,10.312-1.207,14.432-1.5a1.5,1.5,0,0,0,1.012-.5,22.415,22.415,0,1,1,.7,30.546,1.506,1.506,0,0,0-.934-.448c-1.983-.19-4.248-.46-6.709-.8-2.8-.392-5.7-.858-8.557-1.374a.644.644,0,0,0-.707.885l0,.011a35.756,35.756,0,0,0,65.872-27.834M239.493,35.748a22.279,22.279,0,0,1,2.813-10.863c-4.372.358-9.672.936-14.964,1.71a36.033,36.033,0,0,0,0,18.291c5.457,1.066,10.922,1.9,15.37,2.419a22.278,22.278,0,0,1-3.215-11.556" transform="translate(-202.228 0)" fill="#0cac5c"/>
    <path id="Tracé_44" data-name="Tracé 44" d="M65.99,242.87c0,6.468-7.986,11.71-17.838,11.71A73.565,73.565,0,0,1,40.48,254c-4.449-.516-9.913-1.353-15.37-2.419C12.536,249.131,0,245.473,0,241.774s12.54-6.641,25.114-8.48c5.292-.774,10.591-1.352,14.964-1.71,3.4-.278,6.232-.423,8.074-.423,9.852,0,17.838,5.243,17.838,11.71" transform="translate(0 -206.699)" fill="#0cac5c"/>
    <text id="Siméon" transform="translate(20.924 94.429)" fill="#0cac5c" font-size="20" font-family="Helvetica"><tspan x="0" y="0">Siméon</tspan></text>
  </g>
</svg>
