<svg xmlns="http://www.w3.org/2000/svg" width="20" height="20" viewBox="0 0 20 20">
  <g id="vuesax_outline_sms" data-name="vuesax/outline/sms" transform="translate(-556 -252)">
    <g id="sms" transform="translate(556 252)">
      <path id="Vector" d="M13.125,15.417H4.792C1.75,15.417,0,13.667,0,10.625V4.792C0,1.75,1.75,0,4.792,0h8.333c3.042,0,4.792,1.75,4.792,4.792v5.833C17.917,13.667,16.167,15.417,13.125,15.417ZM4.792,1.25C2.408,1.25,1.25,2.408,1.25,4.792v5.833c0,2.383,1.158,3.542,3.542,3.542h8.333c2.383,0,3.542-1.158,3.542-3.542V4.792c0-2.383-1.158-3.542-3.542-3.542Z" transform="translate(1.042 2.292)" fill="#142b63"/>
      <path id="Vector-2" data-name="Vector" d="M4.794,3.855A3.1,3.1,0,0,1,2.844,3.2L.236,1.113A.623.623,0,0,1,1.011.138L3.619,2.222a1.988,1.988,0,0,0,2.342,0L8.569.138a.615.615,0,0,1,.875.1.615.615,0,0,1-.1.875L6.736,3.2A3.058,3.058,0,0,1,4.794,3.855Z" transform="translate(5.206 6.87)" fill="#142b63"/>
      <path id="Vector-3" data-name="Vector" d="M0,0H20V20H0Z" fill="none" opacity="0"/>
    </g>
  </g>
</svg>
